Coordinates
version=1
nRows=10
nColumns=23
inDegrees=yes

Units are S.I. units (second, meters, Newtons, ...)
If the header above contains a line with 'inDegrees', this indicates whether rotational values are in degrees (yes) or radians (no).

endheader
time	pelvis_tilt	pelvis_list	pelvis_rotation	pelvis_tx	pelvis_ty	pelvis_tz	hip_flexion_r	hip_adduction_r	hip_rotation_r	knee_angle_r	knee_angle_r_beta	ankle_angle_r	subtalar_angle_r	mtp_angle_r	hip_flexion_l	hip_adduction_l	hip_rotation_l	knee_angle_l	knee_angle_l_beta	ankle_angle_l	subtalar_angle_l	mtp_angle_l
      7.50000000	     -9.56752863	     -5.89647134	      0.03519340	      2.42327830	      0.99714505	      1.05482422	     36.64018767	      7.45172042	      4.25969516	      7.79199035	      0.13599589	      7.25436270	      2.68562135	      0.00000000	    -11.53020336	     -4.13279722	     -1.17773083	     56.09246127	      0.97899813	    -25.67931573	     -6.57680940	      0.00000000
      7.50666667	     -8.94007386	     -5.81597499	     -0.53568960	      2.42289336	      0.99527821	      1.05569541	     35.58347655	      7.70299793	      4.57307939	      7.89338995	      0.13776564	      7.10835678	      2.66448995	      0.00000000	    -10.80420686	     -4.10820024	     -2.11663500	     60.87759977	      1.06251456	    -25.74214802	     -7.21373960	      0.00000000
      7.51333333	     -8.44754856	     -5.88888962	     -1.05498371	      2.42250030	      0.99285623	      1.05676145	     34.83066303	      8.07027523	      4.45524784	      8.71794550	      0.15215685	      6.65267188	      2.04145224	      0.00000000	     -9.84355516	     -4.42365963	     -3.14053553	     65.70401365	      1.14675137	    -25.88290153	     -7.66786482	      0.00000000
      7.52000000	     -7.78223094	     -6.05785334	     -1.64666701	      2.42217314	      0.99026437	      1.05803209	     34.02643827	      8.56331880	      4.03594634	     10.20571427	      0.17812332	      6.05554651	      1.26808929	      0.00000000	     -9.09691832	     -4.90049351	     -4.25135681	     70.37206490	      1.22822423	    -25.90145845	     -8.55622215	      0.00000000
      7.52666667	     -7.50421908	     -6.12991345	     -2.22603301	      2.42167681	      0.98676095	      1.05943547	     33.94825745	      8.89419756	      3.14021257	     12.63245868	      0.22047800	      5.56470087	      0.66092769	      0.00000000	     -7.83002152	     -5.35499063	     -5.23932854	     75.04839461	      1.30984158	    -25.78729046	     -9.60771891	      0.00000000
      7.53333333	     -6.94760187	     -6.37745723	     -2.74427091	      2.42136378	      0.98321488	      1.06084744	     33.67143637	      9.24861711	      1.64458569	     15.57044350	      0.27175551	      5.07676674	      0.62317050	      0.00000000	     -6.90258098	     -6.05210568	     -6.16008493	     79.50590709	      1.38763985	    -25.61276901	    -10.98642683	      0.00000000
      7.54000000	     -6.18418534	     -6.80499543	     -3.26450223	      2.42113877	      0.97968546	      1.06226235	     32.98938633	      9.82167434	      0.78392278	     18.42609620	      0.32159605	      4.08132266	     -0.53996463	      0.00000000	     -6.23285018	     -6.98342269	     -7.05588062	     83.74927800	      1.46170065	    -25.21762073	    -12.35854528	      0.00000000
      7.54666667	     -6.08816053	     -6.83897048	     -3.71240913	      2.42047887	      0.97494857	      1.06350136	     33.39011963	      9.80561940	     -0.59123561	     22.15905307	      0.38674844	      3.78291239	     -0.69088162	      0.00000000	     -4.61367415	     -7.49536802	     -7.59994038	     88.00396845	      1.53595900	    -24.66148358	    -13.92650700	      0.00000000
      7.55333333	     -5.85352257	     -7.02966348	     -4.13882981	      2.41980275	      0.97031196	      1.06471278	     33.45493425	      9.99671010	     -1.40930963	     25.72314242	      0.44895353	      3.49179733	     -1.49713390	      0.00000000	     -3.12258671	     -8.19454351	     -8.03888942	     92.03444749	      1.60630413	    -23.91252308	    -15.26335041	      0.00000000
      7.56000000	     -5.66558717	     -7.22794636	     -4.47501607	      2.41893510	      0.96557394	      1.06577712	     33.52041671	     10.15337547	     -2.08825862	     29.33999314	      0.51207948	      3.75115326	     -2.22930176	      0.00000000	     -1.45942883	     -8.92328672	     -8.26085616	     95.89101877	      1.67361400	    -22.99101274	    -16.38803361	      0.00000000
